<?xml version="1.0" encoding="iso-8859-1"?>
<!-- Generator: Adobe Illustrator 22.0.1, SVG Export Plug-In . SVG Version: 6.00 Build 0)  -->
<svg version="1.1" id="Layer_1" xmlns="http://www.w3.org/2000/svg" xmlns:xlink="http://www.w3.org/1999/xlink" x="0px" y="0px"
	 viewBox="-49 141 512 512" style="enable-background:new -49 141 512 512;" xml:space="preserve">
<g>
	<circle style="fill:#F5F5F5;" cx="207" cy="397" r="254"/>
	<path style="fill:#DDDDDD;" d="M207,163c31.599,0,62.241,6.184,91.077,18.381c27.862,11.785,52.889,28.66,74.386,50.156
		c21.497,21.497,38.372,46.524,50.156,74.386C434.816,334.759,441,365.401,441,397s-6.184,62.241-18.381,91.077
		c-11.785,27.862-28.66,52.889-50.156,74.386c-21.497,21.497-46.524,38.372-74.386,50.156C269.241,624.816,238.599,631,207,631
		s-62.241-6.184-91.077-18.381c-27.862-11.785-52.889-28.66-74.386-50.156C20.04,540.966,3.165,515.939-8.619,488.077
		C-20.816,459.241-27,428.599-27,397s6.184-62.241,18.381-91.077c11.785-27.862,28.66-52.889,50.156-74.386
		c21.497-21.497,46.524-38.372,74.386-50.156C144.759,169.184,175.401,163,207,163 M207,143C66.72,143-47,256.72-47,397
		S66.72,651,207,651s254-113.72,254-254S347.28,143,207,143L207,143z"/>
</g>
<path style="fill:#DDDDDD;" d="M275.465,464.077c-0.115-0.372-0.28-0.752-0.468-1.135v-17.977h-22.669
	c-0.429-0.235-0.679-0.367-0.679-0.367l0.958,0.346l3.831-0.346l-2.074-13.483c-0.061,0.076-0.183,0.226-0.183,0.226
	s11.679-7.976,16.783-17.359c4.082-7.504,1.436-15.908,3.888-21.855c6.196-2.098,12.724-7.611,17.541-15.524
	c7.606-12.792,7.952-26.966,0.346-31.806c-1.383-0.691-2.766-1.383-4.149-1.383l7.372-45.104c7.265-22.952,5.81-40.628-0.737-54.246
	c-1.631-3.947-3.681-7.16-6.024-9.76c-19.243-24.982-54.776-32.582-76.462-34.895c-8.699-1.302-15.764-1.012-15.764-1.012
	c-38.572,5.585-59.785,18.659-71.337,30.238c-8.57,8.59-11.011,21.361-6.68,32.42c-3.949,13.363-4.595,27.7-1.739,41.686
	c1.269,31.213,5.772,41.71,5.772,41.71c-0.691,0-1.037,0.346-1.729,0.691c-7.606,4.494-7.606,18.669,0.346,31.461
	c4.817,7.913,11.345,13.427,17.541,15.524c2.024,4.911,0.347,15.498,3.741,21.87c5.856,10.992,16.929,17.344,16.929,17.344
	s-0.122-0.15-0.183-0.226c-1.037,4.494-0.159,13.483-0.159,13.483s-1.915,0-1.915,0.346c0,0.008,0,0.013,0,0.021h0
	c0-0.197,0-0.367,0-0.367c-0.224,0.125-0.431,0.244-0.65,0.367h-19.825v18.506c-34.285,10.144-73.935,33.723-100.527,69.286
	C76.663,582.194,138.202,614,207,614s130.337-31.806,170.44-81.244C350.871,496.791,310.334,474,275.465,464.077z M207,488.503
	c0,0-0.091-0.122-0.261-0.346h0.448C207.065,488.381,207,488.503,207,488.503z"/>
</svg>
